<svg width="30" height="31" viewBox="0 0 30 31" fill="none" xmlns="http://www.w3.org/2000/svg">
<g clip-path="url(#clip0_1_497)">
<path d="M17.0254 30.9395H12.2118C11.4078 30.9395 10.7537 30.2649 10.7537 29.4357V18.2383H7.94535C7.14132 18.2383 6.48727 17.5636 6.48727 16.7346V11.9365C6.48727 11.1073 7.14132 10.4327 7.94535 10.4327H10.7537V8.03003C10.7537 5.64765 11.4791 3.62075 12.8512 2.16881C14.2294 0.710243 16.1556 -0.0605469 18.4214 -0.0605469L22.0925 -0.0543976C22.8951 -0.0529785 23.548 0.621552 23.548 1.44934V5.90427C23.548 6.73348 22.8942 7.40801 22.0904 7.40801L19.6187 7.40895C18.8649 7.40895 18.6729 7.56481 18.6319 7.61259C18.5642 7.69182 18.4837 7.91579 18.4837 8.53427V10.4325H21.9047C22.1622 10.4325 22.4117 10.498 22.6261 10.6215C23.0887 10.888 23.3763 11.392 23.3763 11.9367L23.3744 16.7348C23.3744 17.5636 22.7204 18.2381 21.9164 18.2381H18.4837V29.4357C18.4837 30.2649 17.8295 30.9395 17.0254 30.9395V30.9395ZM12.5159 29.1221H16.7213V17.4247C16.7213 16.8711 17.1582 16.4207 17.6949 16.4207H21.6123L21.6139 12.2501H17.6946C17.158 12.2501 16.7213 11.7998 16.7213 11.2461V8.53427C16.7213 7.82426 16.7913 7.01682 17.311 6.40993C17.9389 5.67627 18.9284 5.5916 19.6182 5.5916L21.7859 5.59065V1.76248L18.42 1.75681C14.7787 1.75681 12.5159 4.16071 12.5159 8.03003V11.2461C12.5159 11.7995 12.0793 12.2501 11.5426 12.2501H8.24944V16.4207H11.5426C12.0793 16.4207 12.5159 16.8711 12.5159 17.4247V29.1221ZM22.089 1.76295H22.0893H22.089Z" fill="white"/>
</g>
<defs>
<clipPath id="clip0_1_497">
<rect width="30" height="31" fill="white"/>
</clipPath>
</defs>
</svg>
