<svg width="22" height="22" viewBox="0 0 22 22" fill="none" xmlns="http://www.w3.org/2000/svg">
<g clip-path="url(#clip0_1_515)">
<path d="M21.8185 3.32575C21.6029 3.07438 21.2456 2.98116 20.9279 3.09303L0.747316 10.0763C0.344148 10.2166 0.0611587 10.5569 0.00862267 10.9643C-0.0434098 11.3698 0.143236 11.7633 0.493364 11.9897L3.37798 13.8753C3.65744 14.0581 4.0168 14.0777 4.31607 13.9264L10.5734 10.7668L5.69661 14.2537C5.46767 14.4174 5.33087 14.6786 5.33087 14.9522V18.1821C5.33087 18.5153 5.52171 18.8205 5.82887 18.9789C6.13654 19.1374 6.50815 19.1217 6.80037 18.9372L8.99195 17.5451L11.1471 18.9523C11.3359 19.0762 11.5608 19.1414 11.7878 19.1414C11.8645 19.1414 11.9415 19.1339 12.0174 19.1188C12.32 19.0583 12.5877 18.8793 12.752 18.6276L21.8824 4.21102C22.0602 3.93345 22.0346 3.57825 21.8185 3.32575ZM11.7396 17.8444L9.50774 16.3871C9.35248 16.2855 9.17356 16.2347 8.9948 16.2347C8.8199 16.2347 8.64484 16.2834 8.49159 16.3808L6.62061 17.5692V15.1344L15.232 8.97728C15.6165 8.70228 15.7134 8.20179 15.4571 7.81316C15.2006 7.42453 14.6872 7.29321 14.2627 7.50762L3.9166 12.7319L1.47678 11.1371L20.0603 4.70653L11.7396 17.8444Z" fill="white"/>
</g>
<defs>
<clipPath id="clip0_1_515">
<rect width="22" height="21.0252" fill="white" transform="translate(6.10352e-05 0.557007)"/>
</clipPath>
</defs>
</svg>
