<svg width="22" height="17" viewBox="0 0 22 17" fill="none" xmlns="http://www.w3.org/2000/svg">
<path d="M21.8185 0.325754C21.6029 0.0743827 21.2456 -0.018837 20.9279 0.0930266L0.747316 7.0763C0.344148 7.21661 0.0611587 7.55687 0.00862267 7.9643C-0.0434098 8.36981 0.143236 8.76326 0.493364 8.98972L3.37798 10.8753C3.65744 11.0581 4.0168 11.0777 4.31607 10.9264L10.5734 7.76677L5.69661 11.2537C5.46767 11.4174 5.33087 11.6786 5.33087 11.9522V15.1821C5.33087 15.5153 5.52171 15.8205 5.82887 15.9789C6.13654 16.1374 6.50815 16.1217 6.80037 15.9372L8.99194 14.5451L11.1471 15.9523C11.3359 16.0762 11.5608 16.1414 11.7878 16.1414C11.8645 16.1414 11.9415 16.1339 12.0174 16.1188C12.32 16.0583 12.5877 15.8793 12.752 15.6276L21.8824 1.21102C22.0602 0.93345 22.0346 0.578251 21.8185 0.325754V0.325754ZM11.7396 14.8444L9.50774 13.3871C9.35248 13.2855 9.17355 13.2347 8.9948 13.2347C8.8199 13.2347 8.64484 13.2834 8.49159 13.3808L6.62061 14.5692V12.1344L15.232 5.97728C15.6165 5.70228 15.7134 5.20178 15.4571 4.81316C15.2006 4.42453 14.6872 4.29321 14.2627 4.50762L3.9166 9.73194L1.47678 8.13708L20.0603 1.70653L11.7396 14.8444Z" fill="#044560"/>
</svg>
