<svg width="30" height="30" viewBox="0 0 30 30" fill="none" xmlns="http://www.w3.org/2000/svg">
<g clip-path="url(#clip0_1_491)">
<path d="M11.415 27.4048C6.40799 27.4048 2.45062 26.5301 0.557314 25.0053L0.520464 24.9755L0.487048 24.9421C0.0372949 24.4921 -0.110105 23.9018 0.0830712 23.3227L0.100695 23.2747C0.33507 22.6885 0.909334 22.2939 1.53166 22.2903C2.81249 22.2681 3.93309 22.1154 4.95001 21.819C3.32793 21.0646 2.20114 19.7584 1.53075 17.8678C1.3053 17.2782 1.49985 16.6245 2.01941 16.2347C2.14758 16.1384 2.29247 16.0656 2.44582 16.0168C1.54448 14.9763 0.878664 13.7923 0.505816 12.5401L0.494143 12.5012L0.486132 12.4614C0.35956 11.8281 0.642687 11.1769 1.16156 10.8965C1.37923 10.7715 1.61566 10.7068 1.85301 10.7013C1.59712 10.1501 1.41104 9.58434 1.30072 9.01511C0.994478 7.43766 1.24716 5.85631 2.05145 4.31502L2.23754 3.94286C2.38654 3.64508 2.67127 3.43589 2.99948 3.38256C3.3277 3.32946 3.66416 3.43795 3.89922 3.67301L4.23819 4.01244C6.91611 6.8199 9.31479 8.152 13.4619 9.0634C13.6471 7.47153 14.3353 5.99181 15.4456 4.82726C16.767 3.44161 18.5314 2.6641 20.414 2.63755H20.4263C21.7998 2.63755 23.5036 3.4217 24.5341 3.97467C25.418 3.68537 26.483 3.23745 27.588 2.76389C28.1051 2.52127 28.7425 2.63228 29.149 3.03878C29.5475 3.43726 29.658 3.99916 29.4465 4.54528C29.3662 4.76889 29.2751 4.98839 29.1737 5.20308C29.325 5.27243 29.4635 5.3665 29.5804 5.48346C29.9341 5.83709 30.0815 6.39052 29.9558 6.8936L29.9423 6.94144C29.5189 8.30603 28.7054 9.41748 27.6297 10.1151C27.45 19.6826 20.2453 27.4048 11.415 27.4048V27.4048ZM2.2444 24.0254C4.02854 25.0348 7.42857 25.6454 11.415 25.6454C15.2476 25.6454 18.8644 24 21.5989 21.0122C24.3558 17.9999 25.8739 13.9997 25.8739 9.74845V9.70061C25.8739 9.31563 26.0859 8.9643 26.4269 8.78348C27.1188 8.41704 27.6791 7.79288 28.0435 6.99477C27.6677 7.05405 27.2857 6.90322 27.0515 6.58873C26.7794 6.22321 26.7764 5.72951 27.044 5.36078C27.1884 5.16166 27.3193 4.95452 27.436 4.74028C26.4818 5.14106 25.5757 5.5004 24.789 5.73912C24.5032 5.82564 24.1846 5.79177 23.9234 5.64597C22.5229 4.86571 21.2185 4.39925 20.432 4.39696C17.53 4.44136 15.1705 6.92679 15.1705 9.94025C15.1705 10.2518 15.0323 10.5438 14.7917 10.7418C14.5509 10.9395 14.2378 11.0187 13.932 10.9583C9.15022 10.0162 6.31667 8.60358 3.37004 5.64254C2.94776 6.65442 2.8324 7.67363 3.02764 8.68003C3.22562 9.69947 3.75228 10.721 4.55084 11.634C4.85434 11.9805 4.89462 12.4763 4.65109 12.8674C4.40848 13.2572 3.94728 13.4394 3.50394 13.3206C3.15741 13.2277 2.83881 13.1057 2.53668 12.9489C3.15215 14.2858 4.21073 15.5222 5.54144 16.4341C5.92711 16.6984 6.08824 17.1912 5.93352 17.6325C5.77857 18.0745 5.34575 18.359 4.87792 18.3242C4.3682 18.2864 3.91661 18.1896 3.50096 18.0264C4.24712 19.546 5.43936 20.3821 7.27614 20.7016C7.71353 20.7778 8.05411 21.1232 8.12369 21.561C8.1935 21.9989 7.97675 22.4328 7.58467 22.6409C6.01912 23.4708 4.308 23.9162 2.2444 24.0254V24.0254Z" fill="white"/>
</g>
<defs>
<clipPath id="clip0_1_491">
<rect width="30" height="30" fill="white"/>
</clipPath>
</defs>
</svg>
