<svg width="24" height="24" viewBox="0 0 24 24" fill="none" xmlns="http://www.w3.org/2000/svg">
<g clip-path="url(#clip0_1_655)">
<path d="M19.5698 7.01166C19.5698 6.79377 19.5308 6.5821 19.457 6.38398L20.6008 5.85352C20.8096 5.75684 20.9581 5.56403 20.9982 5.33753C21.0383 5.11103 20.9654 4.87903 20.8026 4.71625L18.8185 2.73212C18.6557 2.56934 18.4237 2.49665 18.1972 2.53656C17.9707 2.57685 17.7781 2.72516 17.6812 2.9339L17.1509 4.07794C16.9526 4.00397 16.741 3.96497 16.5233 3.96497C16.0443 3.96497 15.594 4.15155 15.2552 4.4903L12.7101 7.03546C12.3726 7.37311 12.1985 7.81293 12.187 8.25641H19.0666C19.3911 7.92041 19.5698 7.47986 19.5698 7.01166Z" fill="white"/>
<path d="M4.409 4.87283C4.409 4.32424 4.85541 3.87801 5.40399 3.87801C5.95258 3.87801 6.3988 4.32424 6.3988 4.87283V8.25643H7.8078V4.87283C7.8078 3.54733 6.72949 2.46902 5.40399 2.46902C4.07831 2.46902 3 3.54733 3 4.87283V6.06722C3 6.45632 3.31549 6.77163 3.70441 6.77163C3.91937 6.77163 4.11145 6.67532 4.24054 6.52371C4.34546 6.40066 4.409 6.24136 4.409 6.06722V4.87283Z" fill="white"/>
<path d="M12.0467 6.20942C13.4427 5.88861 14.4871 4.63691 14.4871 3.14496C14.4871 2.53247 14.3106 1.96082 14.0065 1.47687L9.67419 5.80933C9.96661 5.99298 10.2913 6.12976 10.6377 6.20942V8.25635H12.0467V6.20942Z" fill="white"/>
<path d="M11.3421 3.8147e-06C9.60791 3.8147e-06 8.19708 1.41083 8.19708 3.14502C8.19708 3.75751 8.37378 4.32917 8.67773 4.81311L13.0102 0.480656C12.5262 0.176518 11.9546 3.8147e-06 11.3421 3.8147e-06Z" fill="white"/>
<path d="M4.60052 24.0001H20.161V9.66549H4.60052V24.0001ZM8.98206 11.5685H10.2532C10.6423 11.5685 10.9578 11.8838 10.9578 12.2729C10.9578 12.6388 10.6789 12.9394 10.3222 12.974V14.8629C10.3222 15.9982 11.2456 16.9216 12.3807 16.9216C13.5159 16.9216 14.4393 15.9982 14.4393 14.8629V12.974C14.0826 12.9394 13.8038 12.6388 13.8038 12.2729C13.8038 11.8838 14.1191 11.5685 14.5082 11.5685H15.7795C16.1686 11.5685 16.4841 11.8838 16.4841 12.2729C16.4841 12.6388 16.2052 12.9394 15.8483 12.974V14.8629C15.8483 16.7751 14.2928 18.3306 12.3807 18.3306C10.4687 18.3306 8.91321 16.7751 8.91321 14.8629V12.974C8.55633 12.9394 8.27747 12.6388 8.27747 12.2729C8.27747 11.8838 8.59296 11.5685 8.98206 11.5685Z" fill="white"/>
</g>
<defs>
<clipPath id="clip0_1_655">
<rect width="24" height="24" fill="white"/>
</clipPath>
</defs>
</svg>
