<svg width="24" height="24" viewBox="0 0 24 24" fill="none" xmlns="http://www.w3.org/2000/svg">
<g clip-path="url(#clip0_1_614)">
<path d="M22.6278 6.64428L17.3557 1.37221C16.7303 0.74695 15.8342 0.56856 15.0171 0.907214C14.2 1.24559 13.6924 2.0053 13.6924 2.8897V5.05538C14.9258 5.35242 16.095 5.98098 17.0559 6.9416C17.0565 6.94201 17.0567 6.94229 17.0573 6.9427C17.0584 6.94366 17.0593 6.94489 17.0606 6.94613C18.0007 7.88766 18.6454 9.04548 18.9487 10.3075H21.1103C21.9948 10.3075 22.7544 9.79997 23.0929 8.98286C23.4313 8.16575 23.253 7.26968 22.6278 6.64428Z" fill="white"/>
<path d="M6.96798 17.0354C6.9673 17.035 6.96661 17.0345 6.96606 17.0339C6.96427 17.0323 6.96276 17.0303 6.96112 17.0286C6.0027 16.0684 5.37538 14.9009 5.07874 13.6692H2.91306C2.02852 13.6692 1.26896 14.1768 0.93044 14.9938C0.59206 15.8109 0.770314 16.7069 1.39557 17.3325L6.66764 22.6044C7.08348 23.0202 7.61906 23.2383 8.1714 23.2383C8.44977 23.2383 8.73239 23.183 9.00622 23.0695C9.82333 22.7312 10.3309 21.9715 10.3309 21.0871V18.9255C9.06816 18.6219 7.90965 17.9767 6.96798 17.0354Z" fill="white"/>
<path d="M14.297 13.6061C13.5066 13.6061 12.7524 13.3724 12.1123 12.9382C11.5097 13.924 11.634 15.2322 12.4863 16.0846C12.97 16.5682 13.6131 16.8346 14.2971 16.8346C14.981 16.8346 15.6243 16.5682 16.1078 16.0846V16.0844C17.202 14.9903 17.8045 13.5355 17.8045 11.9882C17.8045 11.8115 17.7963 11.636 17.7807 11.4621C17.5988 11.8232 17.3582 12.162 17.0573 12.4629C16.32 13.2002 15.3398 13.6061 14.297 13.6061Z" fill="white"/>
<path d="M11.9105 11.0391C12.5136 10.0532 12.3895 8.7445 11.5371 7.89196C10.5385 6.89344 8.91366 6.89344 7.91528 7.89196C6.65363 9.15374 6.0969 10.8576 6.24494 12.5095C6.42649 12.1503 6.66627 11.8133 6.96606 11.5136C8.30845 10.1714 10.3927 10.0136 11.9105 11.0391Z" fill="white"/>
<path d="M12.0117 6.19794C11.8377 6.19794 11.6637 6.20604 11.4904 6.22156C11.8496 6.40311 12.1866 6.64288 12.4863 6.94267C13.8288 8.2852 13.9865 10.37 12.9603 11.8878C13.3587 12.1325 13.8177 12.2636 14.297 12.2636C14.981 12.2636 15.6243 11.9974 16.1078 11.5137C17.1054 10.5163 17.1064 8.89412 16.1111 7.89533C16.1101 7.89423 16.1089 7.89313 16.1078 7.89189C14.9787 6.76277 13.4948 6.19794 12.0117 6.19794Z" fill="white"/>
<path d="M12.0117 17.7811C12.1873 17.7811 12.3619 17.7728 12.5348 17.7576C12.1708 17.573 11.8338 17.3309 11.5369 17.0339C10.1947 15.6915 10.0369 13.607 11.0625 12.0895C10.0766 11.4863 8.76782 11.6103 7.91528 12.4629C6.91854 13.4596 6.91689 15.0804 7.91034 16.0793C7.91212 16.0809 7.91363 16.0827 7.91528 16.0844C9.00952 17.1786 10.4644 17.7811 12.0117 17.7811Z" fill="white"/>
</g>
<defs>
<clipPath id="clip0_1_614">
<rect width="24" height="24" fill="white"/>
</clipPath>
</defs>
</svg>
