<svg width="20" height="20" viewBox="0 0 20 20" fill="none" xmlns="http://www.w3.org/2000/svg">
<g clip-path="url(#clip0_1_641)">
<path d="M19.4141 14.1014H10.0002C9.67621 14.1014 9.41422 14.3636 9.41422 14.6874C9.41422 17.5954 11.7796 19.9999 14.6875 19.9999C17.5955 19.9999 20 17.5954 20 14.6874C20 14.3636 19.738 14.1014 19.4141 14.1014Z" fill="white"/>
<path d="M8.49564 16.4452C8.33588 15.8853 8.24234 15.2982 8.24234 14.6873C8.24234 15.0113 7.98019 15.2733 7.6564 15.2733C7.33246 15.2733 7.07047 15.0113 7.07047 14.6873V14.1006C7.03659 14.1014 7.00638 14.1037 6.97083 14.1037C6.40503 14.1037 5.64331 13.9888 5.11749 13.4624C4.23523 12.5806 4.50867 11.0367 4.54239 10.8633C4.58817 10.6299 4.77081 10.4474 5.00412 10.4016C5.0058 10.4013 5.0119 10.4004 5.01389 10.3999C4.2717 9.5047 4.51019 8.09906 4.54239 7.93381C4.58817 7.7002 4.77081 7.5177 5.00412 7.47192C5.09659 7.45361 5.58319 7.37183 6.14883 7.43011C6.00235 7.14691 5.89859 6.83121 5.89859 6.48438C5.89859 5.23697 7.18307 4.33853 7.32956 4.24026C7.52762 4.10751 7.78503 4.10751 7.98309 4.24026C8.12958 4.33868 9.41422 5.23697 9.41422 6.48438C9.41422 6.83121 9.3103 7.14691 9.16382 7.43011C9.72961 7.37183 10.2164 7.45361 10.3085 7.47192C10.542 7.5177 10.7245 7.70035 10.7703 7.93381C10.8025 8.09906 11.041 9.5047 10.2988 10.3999C10.3008 10.4004 10.3069 10.4013 10.3085 10.4016C10.542 10.4474 10.7245 10.63 10.7703 10.8633C10.7956 10.9937 10.956 11.8987 10.6592 12.7145L12.6161 10.7576C13.1689 10.2048 13.9047 9.89975 14.6875 9.89975C14.8863 9.89975 15.0818 9.92035 15.2722 9.95865C15.2663 7.13837 14.6735 4.73877 14.3204 3.55469H0.953064C0.598755 4.7406 0.000152588 7.15668 0.000152588 10C0.000152588 12.8433 0.598755 15.2594 0.953064 16.4452H8.49564Z" fill="white"/>
<path d="M8.53803 8.87563C8.28169 9.13198 8.23423 9.62743 8.244 9.99883C8.61814 10.008 9.11207 9.95931 9.36659 9.70418C9.62126 9.44952 9.67161 8.95864 9.66139 8.58099C9.28083 8.57229 8.79331 8.62097 8.53803 8.87563Z" fill="white"/>
<path d="M8.34244 14.1037C8.30673 14.1037 8.27637 14.1014 8.24234 14.1006V14.6873C8.24234 14.4817 8.28445 14.287 8.34961 14.1034C8.34732 14.1034 8.34473 14.1037 8.34244 14.1037Z" fill="white"/>
<path d="M0.810546 2.38281H14.4644L15.2124 0.847931C15.3035 0.666656 15.2937 0.450897 15.1868 0.278015C15.0797 0.105286 14.8915 0 14.6883 0H0.586853C0.383758 0 0.195465 0.105286 0.0885006 0.278015C-0.0184636 0.450897 -0.0282292 0.666656 0.0627132 0.847931L0.810546 2.38281Z" fill="white"/>
<path d="M8.53803 11.8053C8.28169 12.0616 8.23423 12.5571 8.244 12.9285C8.61814 12.9314 9.11207 12.889 9.36659 12.6338C9.62126 12.3792 9.67161 11.8881 9.66139 11.5105C9.28083 11.5071 8.79331 11.55 8.53803 11.8053Z" fill="white"/>
<path d="M8.95523 17.617H0.809783L0.0619503 19.1519C-0.0289922 19.3332 -0.0192265 19.549 0.0877376 19.7218C0.194702 19.8946 0.382995 19.9999 0.58609 19.9999H10.9935C10.1372 19.3982 9.43695 18.5532 8.95523 17.617Z" fill="white"/>
<path d="M5.94605 12.6338C6.20239 12.8906 6.70074 12.9324 7.06924 12.9278C7.07962 12.5502 7.02927 12.0597 6.7746 11.8052C6.51947 11.5499 6.02966 11.5054 5.6514 11.5104C5.64102 11.8881 5.69138 12.3791 5.94605 12.6338Z" fill="white"/>
<path d="M7.07047 6.48438C7.07047 6.84708 7.38739 7.23099 7.65701 7.48627C7.93106 7.22702 8.24234 6.84418 8.24234 6.48438C8.24234 6.12152 7.92526 5.73761 7.65579 5.48248C7.38174 5.74158 7.07047 6.12442 7.07047 6.48438Z" fill="white"/>
<path d="M6.7746 8.87562C6.51947 8.62034 6.02966 8.57059 5.6514 8.58097C5.64102 8.95862 5.69138 9.4495 5.94605 9.70417C6.20239 9.96113 6.70074 10.008 7.06924 9.9982C7.07962 9.62055 7.02927 9.13028 6.7746 8.87562Z" fill="white"/>
<path d="M13.4448 11.5861L12.1011 12.9297H17.2739L15.9303 11.5861C15.2449 10.9006 14.1302 10.9006 13.4448 11.5861Z" fill="white"/>
</g>
<defs>
<clipPath id="clip0_1_641">
<rect width="20" height="20" fill="white"/>
</clipPath>
</defs>
</svg>
