<svg width="24" height="24" viewBox="0 0 24 24" fill="none" xmlns="http://www.w3.org/2000/svg">
<g clip-path="url(#clip0_1_623)">
<path d="M6.3736 5.22739C6.1703 5.22739 5.97544 5.30811 5.83168 5.45183C5.68796 5.59555 5.60724 5.79046 5.60724 5.99375V12.2187H15.7616V5.22786L6.3736 5.22739Z" fill="white"/>
<path d="M23.8154 10.5232L20.4626 6.61251C20.317 6.44268 20.1044 6.34495 19.8807 6.34495L17.2943 6.34514V12.985C17.2943 13.4082 16.9512 13.7513 16.528 13.7513H5.60724V16.0504C5.60724 16.4737 5.95032 16.8168 6.3736 16.8168H8.60766C8.93944 17.9457 9.98429 18.7726 11.2193 18.7726C12.4543 18.7726 13.499 17.9457 13.8309 16.8168H15.8722C16.2039 17.9457 17.2488 18.7726 18.4838 18.7726C19.7188 18.7726 20.7635 17.9457 21.0954 16.8168H23.2337C23.6569 16.8168 24 16.4737 24 16.0504V11.0219C24 10.839 23.9346 10.6621 23.8154 10.5232ZM11.2193 17.2399C10.5634 17.2399 10.0298 16.7063 10.0298 16.0505C10.0298 15.3946 10.5634 14.861 11.2193 14.861C11.8751 14.861 12.4088 15.3946 12.4088 16.0505C12.4088 16.7064 11.8751 17.2399 11.2193 17.2399ZM19.6733 16.0512C19.6728 16.7067 19.1394 17.2399 18.4838 17.2399C17.8279 17.2399 17.2943 16.7064 17.2943 16.0506C17.2943 15.3946 17.8279 14.861 18.4838 14.861C19.1394 14.861 19.6728 15.3943 19.6733 16.0499C19.6733 16.05 19.6732 16.0503 19.6732 16.0505C19.6731 16.0507 19.6733 16.0509 19.6733 16.0512Z" fill="white"/>
<path d="M0.766453 10.2557C0.343266 10.2556 0 10.5988 0 11.022C9.375e-05 11.4452 0.343172 11.7884 0.766359 11.7884L4.07442 11.7885V10.2557L0.766453 10.2557Z" fill="white"/>
<path d="M4.07442 7.19025H3.321C2.89781 7.1903 2.55464 7.53338 2.55464 7.95657C2.55464 8.37985 2.89781 8.72297 3.321 8.72297H4.07447L4.07442 7.19025Z" fill="white"/>
<path d="M4.07442 13.3213H2.29922C1.87603 13.3213 1.53286 13.6644 1.53286 14.0877C1.53286 14.5109 1.87603 14.854 2.29922 14.854H4.07451L4.07442 13.3213Z" fill="white"/>
</g>
<defs>
<clipPath id="clip0_1_623">
<rect width="24" height="24" fill="white"/>
</clipPath>
</defs>
</svg>
